<svg width="24.000000" height="24.000000" viewBox="0 0 24 24" fill="none" xmlns="http://www.w3.org/2000/svg" xmlns:xlink="http://www.w3.org/1999/xlink">
	<desc>
			Created with Pixso.
	</desc>
	<defs>
		<clipPath id="clip109_37">
			<rect id="log-in" width="24.000000" height="24.000000" fill="white" fill-opacity="0"/>
		</clipPath>
	</defs>
	<rect id="log-in" width="24.000000" height="24.000000" fill="#FFFFFF" fill-opacity="0"/>
	<g clip-path="url(#clip109_37)">
		<path id="Vector" d="M15 3L19 3C19.53 3 20.03 3.21 20.41 3.58C20.78 3.96 21 4.46 21 5L21 19C21 19.53 20.78 20.03 20.41 20.41C20.03 20.78 19.53 21 19 21L15 21L15 3ZM15.02 3.98L15 4C14.44 4 14 3.56 14 3C14 2.44 14.44 2 15 2L15.02 2.02L15.02 3.98ZM15.02 21.98L15 22C14.44 22 14 21.56 14 21C14 20.44 14.44 20 15 20L15.02 20.02L15.02 21.98Z" fill="#C4C4C4" fill-opacity="0" fill-rule="nonzero"/>
		<path id="Vector" d="M15 3L19 3C19.53 3 20.03 3.21 20.41 3.58C20.78 3.96 21 4.46 21 5L21 19C21 19.53 20.78 20.03 20.41 20.41C20.03 20.78 19.53 21 19 21L15 21" stroke="#BAE249" stroke-opacity="1.000000" stroke-width="2.000000" stroke-linejoin="round" stroke-linecap="round"/>
		<path id="Vector" d="M10 17L15 12L10 7" stroke="#BAE249" stroke-opacity="1.000000" stroke-width="2.000000" stroke-linejoin="round" stroke-linecap="round"/>
		<path id="Vector" d="M15 12L3 12" stroke="#BAE249" stroke-opacity="1.000000" stroke-width="2.000000" stroke-linejoin="round" stroke-linecap="round"/>
	</g>
</svg>
